<?xml version="1.0" encoding="UTF-8" standalone="no"?>
<!-- Created with Inkscape (http://www.inkscape.org/) -->

<svg
   xmlns:dc="http://purl.org/dc/elements/1.1/"
   xmlns:cc="http://creativecommons.org/ns#"
   xmlns:rdf="http://www.w3.org/1999/02/22-rdf-syntax-ns#"
   xmlns:svg="http://www.w3.org/2000/svg"
   xmlns="http://www.w3.org/2000/svg"
   xmlns:sodipodi="http://sodipodi.sourceforge.net/DTD/sodipodi-0.dtd"
   xmlns:inkscape="http://www.inkscape.org/namespaces/inkscape"
   width="297mm"
   height="210mm"
   viewBox="0 0 1052.3622 744.09448"
   id="svg2"
   version="1.1"
   inkscape:version="0.91 r13725"
   sodipodi:docname="pareto.svg">
  <defs
     id="defs4" />
  <sodipodi:namedview
     id="base"
     pagecolor="#ffffff"
     bordercolor="#666666"
     borderopacity="1.0"
     inkscape:pageopacity="0.0"
     inkscape:pageshadow="2"
     inkscape:zoom="0.7"
     inkscape:cx="539.48675"
     inkscape:cy="405.71429"
     inkscape:document-units="px"
     inkscape:current-layer="layer1"
     showgrid="false"
     inkscape:window-width="1356"
     inkscape:window-height="723"
     inkscape:window-x="4"
     inkscape:window-y="1"
     inkscape:window-maximized="1" />
  <metadata
     id="metadata7">
    <rdf:RDF>
      <cc:Work
         rdf:about="">
        <dc:format>image/svg+xml</dc:format>
        <dc:type
           rdf:resource="http://purl.org/dc/dcmitype/StillImage" />
        <dc:title></dc:title>
      </cc:Work>
    </rdf:RDF>
  </metadata>
  <g
     inkscape:label="Layer 1"
     inkscape:groupmode="layer"
     id="layer1"
     transform="translate(0,-308.26772)">
    <path
       style="opacity:1;fill:#2e2e2e;fill-opacity:0.94117647;stroke:none;stroke-width:0.1;stroke-miterlimit:4;stroke-dasharray:none;stroke-opacity:1"
       id="path4140"
       d="m 170.87812,445.02495 c -3.46144,52.71872 -0.28455,105.56593 2.16395,158.24867 2.73259,50.33744 5.05187,100.69877 6.51861,151.09016 0.65835,22.61852 0.77596,45.25215 1.58428,67.86581 0.26229,7.33804 0.77884,14.66479 1.16825,21.99718 1.3253,5.0331 1.40577,10.57347 3.97588,15.09928 5.86809,10.33333 17.45644,12.98683 28.10548,14.73473 9.52724,1.56377 19.21468,2.01807 28.85902,2.4657 23.87307,1.10802 77.36961,0.88473 98.17956,0.9258 116.17288,0.82469 232.32707,-1.26367 348.41878,-5.46546 32.13727,-1.32985 17.34879,-0.68561 44.36668,-1.90421 0,0 -5.32602,3.89591 -5.32602,3.89591 l 0,0 c -26.06388,0.49576 -11.7842,0.23147 -42.83921,0.78358 -115.49531,1.93863 -230.9983,3.04256 -346.50487,4.06125 -18.24573,0.2609 -78.49867,1.40154 -100.64596,0.81505 -9.96616,-0.26392 -19.98319,-0.47253 -29.8473,-1.91931 -11.10803,-1.62922 -22.99362,-4.13962 -28.79095,-15.14149 -2.47289,-4.69293 -2.27461,-10.36249 -3.41192,-15.54374 -0.14024,-7.46576 -0.37994,-14.93033 -0.42071,-22.3973 -0.27652,-50.65095 0.77306,-10.33383 -0.0313,-68.65151 -0.69636,-50.48983 -2.69484,-100.96271 -5.9956,-151.34952 -3.25236,-51.87607 -7.3961,-103.78704 -6.99722,-155.80415 0,0 7.47053,-3.80643 7.47053,-3.80643 z"
       inkscape:connector-curvature="0" />
    <g
       id="g4174"
       transform="translate(-308.57143,57.142857)">
      <path
         inkscape:connector-curvature="0"
         d="m 562.69309,488.12588 c 3.84225,3.15576 7.32653,6.61003 10.4154,10.37832 0.45653,0.56444 0.91305,1.12887 1.36957,1.69331 0,0 -3.43856,1.83568 -3.43856,1.83568 l 0,0 c -0.44338,-0.56993 -0.88675,-1.13986 -1.33012,-1.70978 -3.04206,-3.78254 -6.50732,-7.26432 -10.55579,-10.1967 0,0 3.5395,-2.00083 3.5395,-2.00083 z"
         id="path4148"
         style="opacity:1;fill:#2e2e2e;fill-opacity:0.94117647;stroke:none;stroke-width:0.1;stroke-miterlimit:4;stroke-dasharray:none;stroke-opacity:1" />
      <path
         inkscape:connector-curvature="0"
         d="m 574.37717,493.3337 c -5.72865,1.81382 -10.95665,4.54235 -16.23208,7.20648 -0.97793,0.49379 -1.95586,0.98758 -2.93378,1.48137 0,0 3.02047,-2.2041 3.02047,-2.2041 l 0,0 c 0.96502,-0.48457 1.93003,-0.96913 2.89504,-1.4537 5.3735,-2.71531 10.73065,-5.43414 16.53212,-7.35246 0,0 -3.28177,2.32241 -3.28177,2.32241 z"
         id="path4150"
         style="opacity:1;fill:#2e2e2e;fill-opacity:0.94117647;stroke:none;stroke-width:0.1;stroke-miterlimit:4;stroke-dasharray:none;stroke-opacity:1" />
    </g>
    <g
       id="g4166"
       transform="translate(-408.57143,164.28571)">
      <path
         inkscape:connector-curvature="0"
         d="m 749.28775,514.20447 c 5.84439,5.39022 11.23175,11.34426 16.82544,17.04147 0,0 -2.58766,1.75707 -2.58766,1.75707 l 0,0 c -5.53995,-5.80468 -10.96711,-11.81041 -17.14181,-16.81115 0,0 2.90403,-1.98739 2.90403,-1.98739 z"
         id="path4152"
         style="opacity:1;fill:#2e2e2e;fill-opacity:0.94117647;stroke:none;stroke-width:0.1;stroke-miterlimit:4;stroke-dasharray:none;stroke-opacity:1" />
      <path
         inkscape:connector-curvature="0"
         d="m 766.02657,518.17106 c -3.2351,3.23457 -6.44469,6.50154 -9.72909,9.67561 -1.89426,1.82702 -3.92973,3.4288 -6.08663,4.85161 0,0 -3.13777,1.33007 -3.13777,1.33007 l 0,0 c 2.19307,-1.4189 4.27284,-2.99936 6.20391,-4.83157 3.25822,-3.10531 6.42944,-6.31992 9.56483,-9.5743 0,0 3.18475,-1.45142 3.18475,-1.45142 z"
         id="path4156"
         style="opacity:1;fill:#2e2e2e;fill-opacity:0.94117647;stroke:none;stroke-width:0.1;stroke-miterlimit:4;stroke-dasharray:none;stroke-opacity:1" />
    </g>
    <g
       id="g4170"
       transform="translate(-147.14286,154.28571)">
      <path
         inkscape:connector-curvature="0"
         d="m 797.46352,638.36189 c 4.72729,5.77854 10.8148,10.15408 16.63255,14.67076 1.10446,0.87031 2.20891,1.74062 3.31337,2.61093 0,0 -2.7052,1.75802 -2.7052,1.75802 l 0,0 c -1.08347,-0.88237 -2.16693,-1.76475 -3.2504,-2.64712 -5.85605,-4.59797 -11.97291,-8.96941 -17.06827,-14.4867 0,0 3.07795,-1.90589 3.07795,-1.90589 z"
         id="path4158"
         style="opacity:1;fill:#2e2e2e;fill-opacity:0.94117647;stroke:none;stroke-width:0.1;stroke-miterlimit:4;stroke-dasharray:none;stroke-opacity:1" />
      <path
         inkscape:connector-curvature="0"
         d="m 818.78169,638.473 c -3.73693,3.41697 -7.3126,7.01223 -11.03495,10.44824 -1.93148,1.6354 -3.84432,3.29045 -5.7174,4.9963 0,0 -3.16529,1.32802 -3.16529,1.32802 l 0,0 c 1.9005,-1.72179 3.83889,-3.39489 5.8088,-5.03212 3.66723,-3.36938 7.20628,-6.86956 10.7666,-10.35715 0,0 3.34224,-1.38329 3.34224,-1.38329 z"
         id="path4164"
         style="opacity:1;fill:#2e2e2e;fill-opacity:0.94117647;stroke:none;stroke-width:0.1;stroke-miterlimit:4;stroke-dasharray:none;stroke-opacity:1" />
    </g>
    <path
       style="opacity:1;fill:#2e2e2e;fill-opacity:0.45714285;stroke:none;stroke-width:0.1;stroke-miterlimit:4;stroke-dasharray:none;stroke-opacity:1"
       id="path4298"
       d="m 393.76593,404.24135 c -10.16362,18.22692 -13.67142,38.0513 -13.11001,57.93242 0.16999,6.01974 0.87981,12.02165 1.31969,18.03247 3.49858,27.0848 14.6374,53.00908 29.85393,77.20245 8.44346,13.42455 14.15953,20.01949 24.05239,32.55199 15.75243,16.65976 27.2294,35.56292 41.54949,52.97931 11.12636,13.53209 11.93821,13.59266 24.92394,26.06658 20.09987,17.19102 40.29777,34.55695 64.6935,47.87269 18.76403,10.24182 23.01457,11.03667 43.5185,18.74413 50.73379,17.85922 106.21219,17.83217 160.50005,17.51452 26.62669,-0.30228 53.17981,-2.00403 79.73381,-3.46539 0,0 -161.51831,94.81828 -161.51831,94.81828 l 0,0 c -6.4386,-0.46488 -12.86101,-1.11181 -19.31577,-1.39463 -11.94867,-0.52352 -39.65611,-0.63246 -51.01006,-0.7246 -20.00943,-0.25436 -37.41363,-0.23956 -57.40212,-1.45082 -18.46884,-1.11919 -39.55024,-3.29179 -57.71361,-6.20007 -9.62139,-1.54058 -19.24577,-3.17185 -28.6484,-5.42831 -8.82218,-2.11718 -17.28454,-5.11255 -25.92681,-7.66882 -7.80834,-3.17776 -15.73883,-6.16662 -23.42502,-9.53327 -35.5533,-15.57286 -69.32326,-34.42636 -96.00556,-59.20498 -13.75772,-12.99779 -28.46472,-25.85066 -40.07352,-40.21477 -10.82635,-13.39595 -18.44164,-28.34906 -25.86485,-43.09582 -9.98724,-18.44242 -20.94123,-36.56312 -30.66235,-55.09516 -10.10287,-19.2598 -18.69792,-39.02257 -27.47752,-58.68961 -6.61167,-18.85662 -5.38187,-14.35417 -10.47594,-32.51323 -2.70815,-9.65385 -4.41429,-20.39816 -9.83011,-29.44379 -0.61899,-1.03387 -1.69799,-1.84214 -2.54697,-2.7632 0,0 210.86163,-86.82837 210.86163,-86.82837 z"
       inkscape:connector-curvature="0"
       inkscape:export-xdpi="97.921761"
       inkscape:export-ydpi="97.921761" />
  </g>
</svg>
